M48
;DRILL file {KiCad 5.0.1} date Mon 12 Nov 2018 04:01:13 PM -02
;FORMAT={-:-/ absolute / inch / decimal}
FMAT,2
INCH,TZ
T1C0.0315
T2C0.0598
T3C0.0630
T4C0.1260
%
G90
G05
M72
T1
X3.36Y-4.255
X3.36Y-4.415
X4.69Y-3.54
X4.69Y-3.725
X4.775Y-4.525
X4.95Y-4.525
X5.78Y-4.36
X5.85Y-3.9659
X5.85Y-4.17
X5.9206Y-4.3606
X7.1688Y-3.906
X7.17Y-4.005
X7.1732Y-3.6614
X7.315Y-3.7087
X7.315Y-3.465
X7.315Y-3.615
X7.315Y-3.906
X7.3941Y-3.906
X7.3941Y-4.005
X7.3986Y-3.7568
X6.0979Y-4.54
X6.29Y-4.54
X7.4897Y-4.1605
X7.4897Y-4.2605
X7.4897Y-4.3605
X7.4897Y-4.4605
X7.5897Y-4.2105
X7.5897Y-4.3105
X7.5897Y-4.4105
X7.5897Y-4.5105
X5.1479Y-4.49
X5.34Y-4.49
X4.34Y-3.94
X4.34Y-4.24
X4.44Y-3.94
X4.44Y-4.24
X4.54Y-3.94
X4.54Y-4.24
X4.64Y-3.94
X4.64Y-4.24
X4.74Y-3.94
X4.74Y-4.24
X4.84Y-3.94
X4.84Y-4.24
X4.94Y-3.94
X4.94Y-4.24
X5.04Y-3.94
X5.04Y-4.24
X5.14Y-3.94
X5.14Y-4.24
X5.24Y-3.94
X5.24Y-4.24
X5.34Y-3.94
X5.34Y-4.24
X5.44Y-3.94
X5.44Y-4.24
X5.54Y-3.94
X5.54Y-4.24
X5.64Y-3.94
X5.64Y-4.24
X4.34Y-4.74
X4.44Y-4.74
X4.54Y-4.74
X4.64Y-4.74
X7.4895Y-3.3394
X7.4895Y-3.4394
X7.4895Y-3.5394
X7.4895Y-3.6394
X7.5895Y-3.3894
X7.5895Y-3.4894
X7.5895Y-3.5894
X7.5895Y-3.6894
T2
X3.35Y-3.475
X3.35Y-3.675
X3.35Y-3.875
X3.35Y-4.075
T3
X7.7194Y-3.2093
X7.7194Y-3.8195
X7.7196Y-4.0304
X7.7196Y-4.6406
T4
X7.8395Y-3.2894
X7.8395Y-3.7394
X7.8397Y-4.1105
X7.8397Y-4.5605
X7.09Y-4.74
X3.29Y-3.04
X3.2836Y-4.74
X7.09Y-3.04
T0
M30
